<svg id="Layer_1" data-name="Layer 1" xmlns="http://www.w3.org/2000/svg" viewBox="0 0 1920 1080"><defs><style>.cls-1{fill:#fff;}.cls-2{fill:#06c;}</style></defs><title>DQPool _ logo original</title><polygon class="cls-1" points="1715.2 723.9 203.77 723.9 204.53 252.33 360.63 55.77 1716.12 55.77 1715.2 723.9"/><path class="cls-2" d="M344.29,22,170,240.55V1058H1750V22ZM1715.2,723.9H203.77l.76-471.57L360.63,55.77H1716.12Z"/><polygon class="cls-2" points="1344.6 437.56 1155.04 437.56 1426.39 645.03 1601.88 645.03 1344.6 437.56"/><path class="cls-2" d="M1338.64,136.59H1079.26A238.57,238.57,0,0,0,920,197.28h0a239.81,239.81,0,0,1,78.61,177.81v29.53a239.92,239.92,0,0,1-79.69,178.77A238.6,238.6,0,0,0,1079.26,645h294.36L1189.31,499.87h-78A101.32,101.32,0,0,1,1010,398.55V383.08a101.32,101.32,0,0,1,101.32-101.32h195.27A101.31,101.31,0,0,1,1407.9,383.08v15.47a100.32,100.32,0,0,1-11.06,45.9l131.9,106.36a238.1,238.1,0,0,0,49.38-145.26V376.08C1578.12,243.82,1470.9,136.59,1338.64,136.59Z"/><path class="cls-2" d="M968.34,375.09v29.53A240.47,240.47,0,0,1,727.93,645H318V328H495.86V498.1H711.61a101.7,101.7,0,0,0,85.83-100.5V382.11a101.69,101.69,0,0,0-85.83-100.5H318L434,134.67H727.93l23.11,1.1a240.45,240.45,0,0,1,217.3,239.32Z"/><polygon class="cls-1" points="1602.33 944.4 1550.16 1010.11 1363.5 1010.11 1363.5 779.32 1431.74 779.32 1431.74 944.4 1602.33 944.4"/><path class="cls-1" d="M608.9,825.33a89.91,89.91,0,0,0-30-31.78,88.89,88.89,0,0,0-48.23-14.23H369.73l-52.17,68.24H520.43c11.82,0,22,9.29,22,21.11v.46c0,11.82-10.21,21.07-22,21.07H317.56v119.91h77.26V958.44H530.68A89.48,89.48,0,0,0,608.9,825.33Z"/><path class="cls-1" d="M871,779.32H753.29A108.75,108.75,0,0,0,644.55,888.06v13.35a108.71,108.71,0,0,0,108.74,108.7H871a108.71,108.71,0,0,0,108.71-108.7V888.06A108.74,108.74,0,0,0,871,779.32Zm31.44,118.92a46,46,0,0,1-46,46H767.82a46,46,0,0,1-46-46v-7a46,46,0,0,1,46-46h88.62a46,46,0,0,1,46,46Z"/><path class="cls-1" d="M1230.47,779.32H1112.75A108.74,108.74,0,0,0,1004,888.06v13.35a108.71,108.71,0,0,0,108.71,108.7h117.72a108.69,108.69,0,0,0,108.71-108.7V888.06A108.72,108.72,0,0,0,1230.47,779.32Zm31.44,118.92a46,46,0,0,1-46,46h-88.66a46,46,0,0,1-46-46v-7a46,46,0,0,1,46-46h88.66a46,46,0,0,1,46,46Z"/></svg>